<svg width="1024" height="1024" viewBox="0 0 1024 1024" fill="none" xmlns="http://www.w3.org/2000/svg">
<g clip-path="url(#clip0_160_243)">
<rect width="1024" height="1024" rx="32" fill="#7CBAE9"/>
<path d="M373.682 680.346C338.682 578.089 362.224 538.276 383.611 529.11L567.102 515.136L1061.15 587.622L1066.87 1077.86L595.953 1083.64C568.71 1016.94 504.295 877.106 464.576 851.442C414.928 819.361 416.24 804.687 373.682 680.346Z" fill="black" fill-opacity="0.08"/>
<mask id="mask0_160_243" style="mask-type:alpha" maskUnits="userSpaceOnUse" x="11" y="-56" width="1081" height="1016">
<mask id="path-3-inside-1_160_243" fill="white">
<path d="M11.9551 452.27V-55.0303H551.955H1091.96V452.27V959.57H551.955H11.9551V452.27ZM957.955 940.27C965.055 938.27 977.455 932.67 986.555 927.57C991.855 924.47 1006.16 912.17 1011.46 905.97C1016.26 900.37 1027.56 884.07 1027.56 882.67C1027.56 880.77 1007.96 866.17 994.455 858.37C964.755 840.97 930.955 827.47 893.055 817.87C869.255 811.87 854.455 809.17 828.655 805.97C806.155 803.27 747.955 802.17 722.255 803.97C671.755 807.57 627.955 816.57 587.755 831.87C562.555 841.37 544.955 847.47 535.155 849.97C495.855 860.07 462.455 854.57 442.355 834.77C438.655 831.07 434.055 825.37 432.155 821.97L428.655 815.87L428.355 780.77L427.955 745.77L431.255 742.67L434.555 739.57H448.055C458.155 739.57 463.255 740.07 468.655 741.47C502.655 750.87 520.255 753.87 546.355 754.47C557.055 754.77 569.955 754.57 574.955 754.07C593.155 752.27 613.055 745.77 629.455 736.77C639.855 731.07 642.655 724.07 636.755 718.17C631.455 712.87 626.455 713.77 593.755 725.57C567.155 735.27 548.555 738.57 520.755 738.57C500.055 738.57 487.155 737.27 473.155 733.87C462.855 731.27 440.055 722.47 427.955 716.47C421.955 713.37 416.855 710.97 416.655 710.97C416.455 710.97 416.555 718.17 416.655 726.87L417.055 742.77H413.455C404.855 742.77 389.755 725.07 382.255 706.37C375.955 690.17 367.755 658.37 367.755 649.57V644.57H371.455C376.055 644.57 383.355 650.37 392.655 661.57C396.155 665.77 399.055 668.87 399.255 668.67C399.555 668.47 400.255 664.17 401.055 659.17C402.555 648.87 405.155 641.37 409.855 633.37C412.655 628.87 415.355 626.27 423.955 620.27C429.855 616.17 437.055 610.77 440.055 608.27C446.455 602.77 454.055 591.57 456.855 583.47C460.355 573.37 459.555 573.27 448.355 581.57C435.455 591.27 433.055 592.37 424.155 592.37C415.855 592.37 409.355 590.47 402.155 585.97C395.655 581.87 389.455 581.37 377.255 584.17C366.655 586.67 361.355 586.87 356.555 585.17C353.455 584.07 353.355 583.97 353.355 577.47C353.355 571.97 353.955 569.67 357.055 563.47C361.855 554.07 368.655 544.07 378.055 532.47C386.655 522.07 388.155 520.17 418.055 488.57C453.555 450.87 464.255 437.37 473.155 419.07C479.655 405.67 481.955 396.27 483.755 375.07C485.455 355.17 487.955 344.77 493.455 332.97C504.955 308.57 534.755 278.67 576.255 250.07C588.855 241.37 598.255 235.57 599.755 235.57C600.255 235.57 603.455 233.77 606.855 231.47C610.355 229.07 615.155 226.47 617.555 225.47C620.055 224.37 624.755 222.27 627.955 220.77C635.455 217.37 634.555 217.67 650.355 212.07C667.255 206.07 686.055 202.97 712.455 201.87L732.455 201.07L739.555 196.47C743.355 193.97 752.055 186.77 758.755 180.37C779.755 160.87 795.255 150.17 809.655 145.47C818.955 142.37 836.855 141.67 844.255 144.07C857.955 148.47 875.955 160.37 890.955 174.77L899.055 182.47L902.255 177.97C906.455 172.27 915.855 160.87 924.955 150.77C935.655 138.87 956.955 121.67 964.855 118.47C965.655 118.17 968.655 116.97 971.455 115.77C974.255 114.67 981.155 113.17 986.855 112.57C995.555 111.67 998.355 111.77 1003.76 113.07C1016.86 116.37 1025.56 120.67 1036.66 129.27L1039.46 131.57V111.77C1039.46 99.1697 1038.96 88.6697 1037.96 82.6697C1031.66 43.8697 1009.56 13.2697 975.555 -3.63027C968.755 -7.03027 959.555 -10.7303 955.055 -12.0303L946.855 -14.3303L554.655 -14.6303C264.555 -14.8303 160.355 -14.6303 154.755 -13.8303C131.455 -10.2303 109.155 1.76973 91.5551 20.3697C75.9551 37.0697 67.0551 53.9697 61.9551 77.2697C60.2551 85.5697 60.1551 101.77 60.1551 466.97V847.97L62.9551 858.17C66.1551 869.57 73.6551 885.97 80.1551 895.57C96.1551 918.97 123.555 936.87 150.455 941.47C153.155 941.87 334.855 942.17 554.255 942.07C874.655 941.97 954.055 941.67 957.755 940.67L957.955 940.27ZM587.555 456.67C590.055 454.87 592.455 453.27 592.955 453.27C593.555 453.27 595.555 452.17 597.355 450.67C599.155 449.27 601.455 448.07 602.355 448.07C603.255 448.07 604.255 447.67 604.655 447.07C604.955 446.57 606.555 446.07 608.255 446.07C609.855 446.07 611.555 445.67 611.855 445.07C612.155 444.57 613.655 444.07 615.255 444.07C616.755 443.97 619.155 443.37 620.555 442.57C621.955 441.77 624.355 441.17 625.755 441.07C629.055 441.07 638.655 436.07 646.155 430.57C649.255 428.27 658.555 419.77 666.755 411.57C674.955 403.37 683.155 395.57 684.855 394.27C686.655 392.97 688.155 391.47 688.155 391.07C688.155 390.27 675.755 388.27 645.155 384.27C621.655 381.27 614.955 382.17 608.755 389.07C604.855 393.27 604.255 395.67 603.855 408.07C603.555 422.17 602.755 424.37 592.955 437.47C586.455 446.27 580.755 456.57 580.755 459.67C580.755 461.97 581.155 461.67 587.755 456.67H587.555ZM1039.56 401.47L1039.26 396.57L1035.96 402.77L1032.66 408.97L1035.96 412.27L1039.26 415.57L1039.56 410.87C1039.76 408.27 1039.76 404.07 1039.56 401.47ZM1011.76 345.77C1019.26 336.87 1031.66 300.97 1036.76 273.87C1042.06 245.47 1036.66 208.57 1023.86 185.57C1019.16 177.17 1008.36 166.17 1001.46 162.87C997.655 161.17 994.555 160.37 989.655 160.37C976.955 160.27 964.255 167.47 948.255 183.77C933.355 198.97 910.355 231.97 906.155 244.07C902.955 253.57 902.555 253.17 944.255 291.87C954.855 301.77 970.155 316.77 978.055 324.97C992.955 340.87 1002.66 348.87 1006.56 348.87C1007.96 348.87 1010.06 347.57 1011.76 345.57V345.77Z"/>
</mask>
<path d="M11.9551 452.27V-55.0303H551.955H1091.96V452.27V959.57H551.955H11.9551V452.27ZM957.955 940.27C965.055 938.27 977.455 932.67 986.555 927.57C991.855 924.47 1006.16 912.17 1011.46 905.97C1016.26 900.37 1027.56 884.07 1027.56 882.67C1027.56 880.77 1007.96 866.17 994.455 858.37C964.755 840.97 930.955 827.47 893.055 817.87C869.255 811.87 854.455 809.17 828.655 805.97C806.155 803.27 747.955 802.17 722.255 803.97C671.755 807.57 627.955 816.57 587.755 831.87C562.555 841.37 544.955 847.47 535.155 849.97C495.855 860.07 462.455 854.57 442.355 834.77C438.655 831.07 434.055 825.37 432.155 821.97L428.655 815.87L428.355 780.77L427.955 745.77L431.255 742.67L434.555 739.57H448.055C458.155 739.57 463.255 740.07 468.655 741.47C502.655 750.87 520.255 753.87 546.355 754.47C557.055 754.77 569.955 754.57 574.955 754.07C593.155 752.27 613.055 745.77 629.455 736.77C639.855 731.07 642.655 724.07 636.755 718.17C631.455 712.87 626.455 713.77 593.755 725.57C567.155 735.27 548.555 738.57 520.755 738.57C500.055 738.57 487.155 737.27 473.155 733.87C462.855 731.27 440.055 722.47 427.955 716.47C421.955 713.37 416.855 710.97 416.655 710.97C416.455 710.97 416.555 718.17 416.655 726.87L417.055 742.77H413.455C404.855 742.77 389.755 725.07 382.255 706.37C375.955 690.17 367.755 658.37 367.755 649.57V644.57H371.455C376.055 644.57 383.355 650.37 392.655 661.57C396.155 665.77 399.055 668.87 399.255 668.67C399.555 668.47 400.255 664.17 401.055 659.17C402.555 648.87 405.155 641.37 409.855 633.37C412.655 628.87 415.355 626.27 423.955 620.27C429.855 616.17 437.055 610.77 440.055 608.27C446.455 602.77 454.055 591.57 456.855 583.47C460.355 573.37 459.555 573.27 448.355 581.57C435.455 591.27 433.055 592.37 424.155 592.37C415.855 592.37 409.355 590.47 402.155 585.97C395.655 581.87 389.455 581.37 377.255 584.17C366.655 586.67 361.355 586.87 356.555 585.17C353.455 584.07 353.355 583.97 353.355 577.47C353.355 571.97 353.955 569.67 357.055 563.47C361.855 554.07 368.655 544.07 378.055 532.47C386.655 522.07 388.155 520.17 418.055 488.57C453.555 450.87 464.255 437.37 473.155 419.07C479.655 405.67 481.955 396.27 483.755 375.07C485.455 355.17 487.955 344.77 493.455 332.97C504.955 308.57 534.755 278.67 576.255 250.07C588.855 241.37 598.255 235.57 599.755 235.57C600.255 235.57 603.455 233.77 606.855 231.47C610.355 229.07 615.155 226.47 617.555 225.47C620.055 224.37 624.755 222.27 627.955 220.77C635.455 217.37 634.555 217.67 650.355 212.07C667.255 206.07 686.055 202.97 712.455 201.87L732.455 201.07L739.555 196.47C743.355 193.97 752.055 186.77 758.755 180.37C779.755 160.87 795.255 150.17 809.655 145.47C818.955 142.37 836.855 141.67 844.255 144.07C857.955 148.47 875.955 160.37 890.955 174.77L899.055 182.47L902.255 177.97C906.455 172.27 915.855 160.87 924.955 150.77C935.655 138.87 956.955 121.67 964.855 118.47C965.655 118.17 968.655 116.97 971.455 115.77C974.255 114.67 981.155 113.17 986.855 112.57C995.555 111.67 998.355 111.77 1003.76 113.07C1016.86 116.37 1025.56 120.67 1036.66 129.27L1039.46 131.57V111.77C1039.46 99.1697 1038.96 88.6697 1037.96 82.6697C1031.66 43.8697 1009.56 13.2697 975.555 -3.63027C968.755 -7.03027 959.555 -10.7303 955.055 -12.0303L946.855 -14.3303L554.655 -14.6303C264.555 -14.8303 160.355 -14.6303 154.755 -13.8303C131.455 -10.2303 109.155 1.76973 91.5551 20.3697C75.9551 37.0697 67.0551 53.9697 61.9551 77.2697C60.2551 85.5697 60.1551 101.77 60.1551 466.97V847.97L62.9551 858.17C66.1551 869.57 73.6551 885.97 80.1551 895.57C96.1551 918.97 123.555 936.87 150.455 941.47C153.155 941.87 334.855 942.17 554.255 942.07C874.655 941.97 954.055 941.67 957.755 940.67L957.955 940.27ZM587.555 456.67C590.055 454.87 592.455 453.27 592.955 453.27C593.555 453.27 595.555 452.17 597.355 450.67C599.155 449.27 601.455 448.07 602.355 448.07C603.255 448.07 604.255 447.67 604.655 447.07C604.955 446.57 606.555 446.07 608.255 446.07C609.855 446.07 611.555 445.67 611.855 445.07C612.155 444.57 613.655 444.07 615.255 444.07C616.755 443.97 619.155 443.37 620.555 442.57C621.955 441.77 624.355 441.17 625.755 441.07C629.055 441.07 638.655 436.07 646.155 430.57C649.255 428.27 658.555 419.77 666.755 411.57C674.955 403.37 683.155 395.57 684.855 394.27C686.655 392.97 688.155 391.47 688.155 391.07C688.155 390.27 675.755 388.27 645.155 384.27C621.655 381.27 614.955 382.17 608.755 389.07C604.855 393.27 604.255 395.67 603.855 408.07C603.555 422.17 602.755 424.37 592.955 437.47C586.455 446.27 580.755 456.57 580.755 459.67C580.755 461.97 581.155 461.67 587.755 456.67H587.555ZM1039.56 401.47L1039.26 396.57L1035.96 402.77L1032.66 408.97L1035.96 412.27L1039.26 415.57L1039.56 410.87C1039.76 408.27 1039.76 404.07 1039.56 401.47ZM1011.76 345.77C1019.26 336.87 1031.66 300.97 1036.76 273.87C1042.06 245.47 1036.66 208.57 1023.86 185.57C1019.16 177.17 1008.36 166.17 1001.46 162.87C997.655 161.17 994.555 160.37 989.655 160.37C976.955 160.27 964.255 167.47 948.255 183.77C933.355 198.97 910.355 231.97 906.155 244.07C902.955 253.57 902.555 253.17 944.255 291.87C954.855 301.77 970.155 316.77 978.055 324.97C992.955 340.87 1002.66 348.87 1006.56 348.87C1007.96 348.87 1010.06 347.57 1011.76 345.57V345.77Z" fill="#FFFEFE" stroke="#FF0000" stroke-width="2" mask="url(#path-3-inside-1_160_243)"/>
</mask>
<g mask="url(#mask0_160_243)">
<g filter="url(#filter0_d_160_243)">
<path d="M286.43 102.286H1039.43V882.815H286.43V102.286Z" fill="white"/>
</g>
</g>
<path d="M58.001 430.8C56.8245 414.068 56.8245 89.2343 57.8702 82.5677L58.7853 77.4697H67.1512H75.6479V246.618C75.6479 339.689 75.9093 415.767 76.1707 415.767C76.6936 415.767 100.876 407.532 105.451 405.702C107.412 404.918 107.674 405.833 107.674 415.506V426.225L94.7327 431.192C87.5432 433.937 78.0008 437.597 73.5564 439.296C69.112 440.865 63.8833 442.826 62.0532 443.218L58.5238 444.002L57.7395 430.93L58.001 430.8Z" fill="white"/>
<path d="M119.308 415.375C118.916 412.107 118.785 334.984 118.916 243.873L119.308 78.1233L145.06 77.7312L170.811 77.4697L170.419 87.7964L170.027 98.2538L153.687 98.646L137.217 99.0382V165.966V232.893L144.275 231.978C148.066 231.455 154.471 230.671 158.262 230.279L165.19 229.494V239.821C165.19 245.442 164.929 250.017 164.667 250.017C163.099 250.017 142.707 252.762 140.223 253.416L137.086 254.069V323.611C137.086 361.911 137.217 393.153 137.478 393.153C137.74 393.153 144.668 390.8 153.034 387.794C161.138 384.787 168.589 382.434 169.243 382.434C170.027 382.434 170.55 386.879 170.55 392.369C170.55 400.473 170.158 402.434 168.328 403.218C167.02 403.741 156.563 407.663 145.19 411.846C133.818 416.159 123.361 419.95 122.184 420.473C120.485 421.127 119.831 420.342 119.047 415.506L119.308 415.375Z" fill="white"/>
<path d="M196.823 388.447C191.594 386.225 188.98 382.957 185.189 374.983L182.052 368.317V235.899C182.052 113.025 182.182 102.96 184.405 96.8158C192.901 72.2409 219.437 67.0122 233.032 87.1427C240.744 98.7766 240.744 97.6001 240.744 227.795C240.744 353.545 240.744 352.63 234.6 367.14C231.332 374.591 222.051 384.787 215.385 387.793C209.11 390.8 202.313 390.931 196.692 388.447H196.823ZM215.516 365.702C222.051 359.036 222.051 359.951 222.574 236.553C222.966 119.038 222.574 106.358 217.999 99.5609C213.293 92.5021 206.365 93.8093 202.182 102.698C199.437 108.973 199.437 109.495 198.914 226.357C198.522 344.526 198.914 359.297 203.228 365.833C205.973 370.016 211.202 370.016 215.385 365.833L215.516 365.702Z" fill="white"/>
<path d="M257.606 222.436V77.3389H270.678C300.743 77.3389 311.593 87.2734 315.253 117.992C316.822 131.325 316.691 200.475 315.122 211.717C312.9 226.88 308.979 236.815 302.181 244.527C296.952 250.278 294.861 251.586 286.234 254.331L276.299 257.337V296.814C276.299 318.513 275.907 342.173 275.384 349.232L274.6 362.042L267.018 364.787C262.835 366.356 259.044 367.532 258.521 367.532C258.129 367.532 257.737 302.304 257.737 222.436H257.606ZM285.841 233.416C296.43 226.488 298.129 215.115 297.345 158.515C296.952 129.495 296.299 113.678 295.253 110.28C292.9 102.698 287.149 97.4694 281.266 97.4694H276.43V167.011C276.43 233.677 276.561 236.553 278.913 236.553C280.221 236.553 283.358 235.246 285.841 233.416Z" fill="white"/>
<path d="M318.783 343.611C318.521 343.219 319.306 330.801 320.613 316.029C321.92 301.258 325.842 256.553 329.109 216.423C335.123 144.659 339.698 94.2015 341.266 83.0905L341.92 77.3389H353.162C363.88 77.3389 364.534 77.4696 365.057 80.4761C365.972 84.5284 365.972 85.7048 375.906 183.743C383.88 263.35 387.279 294.984 389.37 311.454L390.155 317.598L381.266 320.735C376.299 322.435 371.985 323.742 371.723 323.219C371.462 322.958 369.893 310.147 368.325 294.722C366.756 279.167 365.057 266.357 364.795 266.095C364.534 265.834 359.175 266.88 352.9 268.579C344.665 270.801 341.528 272.239 341.528 273.808C341.397 280.997 336.168 337.206 335.515 337.859C334.077 339.428 318.783 344.526 318.391 343.611H318.783ZM364.011 245.573C364.273 245.311 361.266 211.978 356.037 160.737C355.384 154.724 354.599 152.371 353.292 152.371C352.247 152.371 351.462 153.678 351.462 155.508C351.462 157.077 350.024 177.469 348.064 200.606C346.234 223.743 344.665 244.527 344.665 247.01V251.193L354.207 248.841C359.436 247.533 363.88 246.226 364.142 245.834L364.011 245.573Z" fill="white"/>
<path d="M399.305 195.116V77.4697H413.03C436.951 77.4697 448.193 83.2213 454.337 98.646C456.82 105.313 457.343 109.234 457.866 132.24C458.389 159.822 457.343 169.626 452.638 180.475C451.2 183.874 448.455 187.926 446.755 189.887L443.487 193.286L452.768 241.259C457.866 267.795 462.049 289.494 461.788 289.625C461.003 290.54 447.017 295.507 445.579 295.507C443.487 295.507 444.141 298.644 434.598 246.749C430.546 224.658 427.017 205.573 426.625 204.397C426.233 202.828 424.664 202.044 421.919 202.044H417.997V254.723V307.271L410.154 310.278C405.841 311.716 401.788 313.023 400.743 313.023C399.697 313.023 399.305 282.958 399.305 195.377V195.116ZM430.808 179.691C437.997 174.985 438.651 171.586 438.651 138.907C438.651 110.149 438.52 108.581 435.644 104.005C432.246 98.646 427.801 96.1624 421.919 96.1624H417.867V139.691V183.351L422.703 182.567C425.318 182.175 428.978 180.867 430.677 179.56L430.808 179.691Z" fill="white"/>
<path d="M474.206 180.868V77.0776L489.369 77.6005C506.755 78.2541 512.376 80.3456 520.219 89.4958C529.63 100.476 532.898 116.816 533.944 157.73C535.905 229.756 527.147 260.736 501.003 273.939C494.206 277.337 476.298 284.657 474.729 284.657C474.467 284.657 474.206 237.991 474.206 180.868ZM503.487 251.717C512.376 240.606 515.905 216.684 515.905 170.933C515.774 137.469 514.598 123.613 510.676 111.064C508.193 102.698 501.395 96.0317 495.513 96.0317H491.461V176.685C491.461 221.129 491.853 257.73 492.245 258.252C493.552 259.56 500.219 255.638 503.356 251.717H503.487Z" fill="white"/>
</g>
<defs>
<filter id="filter0_d_160_243" x="282.43" y="102.286" width="761" height="788.529" filterUnits="userSpaceOnUse" color-interpolation-filters="sRGB">
<feFlood flood-opacity="0" result="BackgroundImageFix"/>
<feColorMatrix in="SourceAlpha" type="matrix" values="0 0 0 0 0 0 0 0 0 0 0 0 0 0 0 0 0 0 127 0" result="hardAlpha"/>
<feOffset dy="4"/>
<feGaussianBlur stdDeviation="2"/>
<feComposite in2="hardAlpha" operator="out"/>
<feColorMatrix type="matrix" values="0 0 0 0 0 0 0 0 0 0 0 0 0 0 0 0 0 0 0.25 0"/>
<feBlend mode="normal" in2="BackgroundImageFix" result="effect1_dropShadow_160_243"/>
<feBlend mode="normal" in="SourceGraphic" in2="effect1_dropShadow_160_243" result="shape"/>
</filter>
<clipPath id="clip0_160_243">
<rect width="1024" height="1024" rx="32" fill="white"/>
</clipPath>
</defs>
</svg>
